<svg version="1" xmlns="http://www.w3.org/2000/svg" width="200" height="200" viewBox="0 0 150.000000 150.000000"><path d="M0 18.9v18.8l4 2.7c2.2 1.4 4 3.1 4 3.7 0 .5.5.7 1.2.3.7-.5.8-.3.3.6-.6 1-.4 1.2.9.7.9-.4 1.5-.3 1.2.1-.3.5 2.2 3.9 5.4 7.6 8.2 9.1 9.1 11.2 8.8 19.4l-.3 6.7-4.8.3c-3.3.2-5.3-.2-6.3-1.3-.9-.8-1.1-1.5-.5-1.5.5 0 1.3.5 1.6 1.1.5.6 1.3.3 2.2-1 .8-1.2 1.9-1.8 2.5-1.5.7.5.4 1.2-.8 2.1-1.8 1.3-1.8 1.3.3 1 3.3-.5 3.5-1.2 1.3-3.2-2.5-2.3-5.7-3.1-4-1 .8.9.8 1.5 0 2-.5.3-1 .1-1-.5 0-.7-.8-.9-2-.5-2.4.7-5.3-1.2-4.3-2.8.3-.6.1-.7-.5-.3-1.3.8-3.9-.3-4.4-1.9-.2-.5-.9-.9-1.6-.7-.7.2-1.1-.2-1-.9.2-.6-.3-1.4-1-1.6-1-.4-1.2 7-1.1 36.4 0 20.7.5 35.9.9 34.8.8-1.7.9-1.6.9.8.1 1.6-.3 2.6-.9 2.2-.6-.4-1 1.2-1 3.9v4.6h150v-40.5c0-41.4-.1-42.1-3.6-39.7-.6.4-2.3 3.3-3.8 6.4-1.5 3.2-3.1 5.8-3.5 5.8-.3 0-3.6-2.9-7.1-6.5-3.5-3.6-7.2-6.5-8.1-6.5-.8 0-4.6-3.2-8.3-7l-6.8-7 2.3-2.4c2-2 2.7-2.2 4.8-1.3 1.5.6 3.8 2.1 5.2 3.4l2.6 2.4.6-5.2c.7-5.8 1.7-6.9 6.5-6.9 4 0 7.2 1.9 14 8.4l5.2 5V46.7c0-6.4-.3-11.6-.7-11.5-2.7.7-8.7-3.1-15.2-9.7-4-4.2-7.8-7.4-8.5-7.2-.6.2-1.1 1.6-1.1 3 .1 1.4-.3 2.3-.7 2.1-1.3-.8-.9-4.1.7-5.4.8-.7 2.6-1 4-.8 1.4.3 2.5.1 2.5-.3 0-.5 1.3-1.5 2.9-2.3 2.7-1.4 3.1-1.4 5.4.4 1.3 1.1 2.8 1.6 3.2 1.2.5-.4.5-.2.2.4-.3.6 1.1 2.8 3.3 4.9l3.9 3.8V12.6L150 0H7.7l2.4 2.7 2.4 2.8-3.1-2.8C7.5 1 5.3 0 3.2 0H0v18.9zM141 7.7c0 .7-3.9-1.7-4.6-2.8-.3-.6.5-.3 2 .6 1.4 1 2.6 1.9 2.6 2.2zm-16.2 1.8c-.3.3-.9-.2-1.2-1.2-.6-1.4-.5-1.5.5-.6.7.7 1 1.5.7 1.8zm22.5 4.5c.4-.7.5-.6.3.1-.1.7-1 1.3-2 1.5-1 .1-1.5 0-1.2-.3.3-.4-.2-1.6-1.1-2.7-1.4-1.7-1.3-1.6.8.2 1.7 1.5 2.9 1.9 3.2 1.2zM133 12.9c0 .5-.7 1.2-1.6 1.5-1.4.5-1.5.4-.4-.9 1.4-1.7 2-1.9 2-.6zM21 23.7c4.1 4.2 6.6 7 5.5 6.3-1.1-.8-.3.2 1.7 2.3 2.1 2.1 4.3 4.8 4.9 6l1.2 2.2-2.5-2.3c-1.3-1.2-2.7-2-3-1.7-.3.3-1.1-.3-1.9-1.2-1.3-1.7-1.3-1.7.5-.3 1.7 1.3 1.9 1.3 1.4 0-.3-.8-1.4-1.5-2.5-1.5-1.1-.1-3.3-.9-4.9-2-1.6-1.1-3.2-1.8-3.7-1.7-.4.1-.6-.3-.5-1 .2-.7-.3-1.2-.9-1.3-1.6 0-1.8-1.8-.4-2.3.6-.2 1.1.1 1.1.8 0 .6.5.8 1.1.4 1.8-1.1-1.9-2.7-4.7-2-1.3.4-2.4 1.1-2.4 1.7 0 .6.6.7 1.3.3.6-.4.9-.4.5.1-.4.4 0 1.4 1 2.2 1.6 1.2 1.5 1.3-.3.6-2.8-.9-3.5-2.2-3.5-6.9 0-3.5 1.3-6.4 3-6.4.3 0 3.9 3.5 8 7.7zm-7.8 8.8c.3 1.3.1 2.2-.3 1.9-.9-.5-1.3-4.4-.5-4.4.2 0 .6 1.1.8 2.5zm110.5 3.2c-.3 1-.5.4-.5-1.2 0-1.7.2-2.4.5-1.8.2.7.2 2.1 0 3zM11.2 42.2c-.6.6-.7 0-.4-1.9.5-2.1.7-2.3 1-.9.2 1 0 2.2-.6 2.8zm14.3-2.4c-.3.3-1.1 0-1.8-.7-.9-1-.8-1.1.6-.5 1 .3 1.5.9 1.2 1.2zm10.9 1.8c.3.8.2 1.2-.4.9-.6-.3-1-1-1-1.6 0-1.4.7-1.1 1.4.7zM93 44.8c0 .7.5 1 1 .7.6-.3 1-.4 1-.1 0 .3-.4.7-1 1.1-.8.5-4-4.4-4-6.2.1-1.4 3 3 3 4.5zm9 2.9l6.5 6.8-7-6.5c-3.8-3.6-7.1-6.6-7.4-6.8-.2-.1 0-.2.5-.2s3.9 3 7.4 6.7zm-2.3 1.7c-.1.6.4 1 1.1.8.6-.1 1.1.3 1 1-.2.7.3 1.2 1 1.3.6 0 1.1.3 1 .6-.2.3.4 1.4 1.2 2.5.8 1 .1.7-1.6-.9-1.7-1.5-3.3-2.5-3.7-2.2-.4.3-.5.2-.2-.2.3-.3-.2-1.4-1-2.3-1.3-1.4-1.3-1.7-.1-1.7.8 0 1.4.5 1.3 1.1zM33 54c0 .5-.8 1-1.7 1-1.5 0-1.6-.2-.3-1 1.9-1.2 2-1.2 2 0zm-6.3 7.2c-.3.8-.6.5-.6-.6-.1-1.1.2-1.7.5-1.3.3.3.4 1.2.1 1.9zm120.8 10.7c-.3.6-1.1 1.1-1.6 1.1s-.4-.6.3-1.4c1.4-1.6 2.4-1.3 1.3.3zM18.6 84.8c-1 .2-2.2 0-2.8-.6-.6-.6 0-.7 1.9-.4 2.1.5 2.3.7.9 1zm54.6 15.7c1.1 2.1.8 1.8-3.2-3-2.4-2.9-2.4-2.9-.2-1 1.3 1.1 2.8 2.9 3.4 4zm-19.2 0c1.9 1.9 3.2 3.5 2.9 3.5-.3 0-2-1.6-3.9-3.5S49.8 97 50.1 97c.3 0 2 1.6 3.9 3.5zm22.5 6.5c1 1.1 1.6 2 1.3 2-.3 0-1.3-.9-2.3-2-1-1.1-1.6-2-1.3-2 .3 0 1.3.9 2.3 2zm5.5 5.5c1.3 1.4 2.1 2.5 1.8 2.5-.2 0-1.5-1.1-2.8-2.5-1.3-1.4-2.1-2.5-1.8-2.5.2 0 1.5 1.1 2.8 2.5zM64.5 117c-.3.5-1.2 1-1.8 1-.7 0-.6-.4.3-1 1.9-1.2 2.3-1.2 1.5 0z"/><path d="M13.3 18.7c2 2.3 2.2 3.7.4 3-.8-.3-1.4.1-1.4.9 0 1.2.4 1.2 2.3 0 2-1.4 2.4-1.3 3.9.4 1 1.1 1.5 2.8 1.2 3.9-.7 2.8 1.5 4.4 3.8 2.7 1.3-.9 1.5-1.5.6-2-.6-.4-1.4 0-1.7.8-.9 2.3-2.2 1-1.7-1.6.3-1.7-.5-3.2-2.9-5.4-4.3-3.9-7-5.5-4.5-2.7zM.2 47.9c0 8.5.2 9.1 2.9 11.7 3.6 3.4 3.7 2.7.4-2.2-2.8-4.1-2.6-4.9 1.3-4.9 2.3 0 2.7-.5 3-3.3.4-3.6-.6-5.2-4.9-8.3L.1 39l.1 8.9zm5.1 1.8c-.3.7-.6 1.3-.8 1.3-.2 0-.5-.6-.8-1.3-.3-.8.1-1.4.8-1.4.7 0 1.1.6.8 1.4zM113.5 51.9c.3.5.1 1.1-.5 1.3-.6.2 5.4 6.6 13.2 14.3l14.1 14-12.4-13.3c-6.8-7.4-12.3-14-12.3-14.7.1-.8-.5-1.6-1.3-1.9-.8-.3-1.2-.2-.8.3zM1 63c-.9.6-1 1-.3 1 .6 0 1.5-.5 1.8-1 .8-1.2.4-1.2-1.5 0zM2.5 65c-.3.6.1.7.9.4 1.8-.7 2.1-1.4.7-1.4-.6 0-1.3.4-1.6 1z"/></svg>